<?xml version="1.0" encoding="UTF-8"?>
<svg id="_圖層_1" data-name=" 圖層 1" xmlns="http://www.w3.org/2000/svg" viewBox="0 0 958.31 156.83">
  <defs>
    <style>
      .cls-1 {
        fill: #003e6a;
      }

      .cls-2, .cls-3, .cls-4 {
        fill: #00561f;
      }

      .cls-5 {
        fill: #231815;
      }

      .cls-6 {
        letter-spacing: -.04em;
      }

      .cls-7 {
        fill: #595757;
        stroke: #595757;
        stroke-miterlimit: 10;
        stroke-width: 1.07px;
      }

      .cls-8 {
        letter-spacing: -.46em;
      }

      .cls-9 {
        fill: #fff;
      }

      .cls-3 {
        font-family: NotoSansTC-Bold, 'Noto Sans TC';
        font-variation-settings: 'wght' 700;
        font-weight: 700;
      }

      .cls-10 {
        fill: #baa0ca;
      }

      .cls-11 {
        fill: #d7000f;
        fill-rule: evenodd;
      }

      .cls-12 {
        font-size: 33.43px;
      }

      .cls-12, .cls-4 {
        font-family: NotoSansTC-Regular, 'Noto Sans TC';
        font-variation-settings: 'wght' 400;
      }

      .cls-4 {
        font-size: 25.92px;
      }

      .cls-13 {
        letter-spacing: -.46em;
      }

      .cls-14 {
        fill: #972023;
      }

      .cls-15 {
        letter-spacing: -.04em;
      }

      .cls-16 {
        letter-spacing: -.04em;
      }

      .cls-17 {
        letter-spacing: -.04em;
      }

      .cls-17, .cls-18 {
        font-size: 39.33px;
      }

      .cls-19 {
        letter-spacing: -.04em;
      }

      .cls-20 {
        font-size: 59.18px;
      }

      .cls-18 {
        letter-spacing: -.46em;
      }

      .cls-21 {
        letter-spacing: -.46em;
      }
    </style>
  </defs>
  <g>
    <g>
      <g>
        <polygon class="cls-14" points="720.62 137.68 720.79 137.7 720.79 135.48 720.62 137.68"/>
        <path class="cls-14" d="M719.88,137.59l.23.03.42-2.97c-.08-.01-.15-.03-.23-.05l-.42,2.98Z"/>
        <path class="cls-14" d="M719.15,137.46l.23.05.61-2.98c-.07-.02-.15-.04-.22-.07l-.62,3Z"/>
        <path class="cls-14" d="M718.42,137.28l.22.06.81-2.99c-.07-.03-.15-.06-.22-.09l-.82,3.01Z"/>
        <path class="cls-14" d="M717.71,137.05l.22.07,1.02-2.99c-.07-.03-.14-.07-.21-.11l-1.03,3.03Z"/>
        <path class="cls-14" d="M717.02,136.78l.21.09,1.24-3c-.07-.04-.13-.08-.2-.13l-1.26,3.04Z"/>
        <path class="cls-14" d="M716.34,136.47l.21.1,1.47-3.01c-.06-.05-.13-.1-.19-.14l-1.49,3.05Z"/>
        <path class="cls-14" d="M715.68,136.11l.2.11,1.71-3.01c-.06-.05-.12-.11-.18-.16l-1.74,3.05Z"/>
        <path class="cls-14" d="M715.05,135.72l.19.13,1.96-3c-.06-.06-.11-.12-.16-.18l-2,3.05Z"/>
        <path class="cls-14" d="M714.44,135.28l.19.14,2.23-2.97c-.05-.06-.1-.13-.15-.19l-2.27,3.03Z"/>
        <path class="cls-14" d="M713.86,134.81l.18.15,2.5-2.94c-.04-.07-.09-.14-.13-.2l-2.55,2.99Z"/>
        <path class="cls-14" d="M713.31,134.3l.17.16,2.79-2.89c-.04-.07-.08-.14-.11-.22l-2.85,2.94Z"/>
        <path class="cls-14" d="M712.8,133.76l.16.17,3.09-2.82c-.03-.07-.07-.15-.1-.23l-3.15,2.87Z"/>
        <path class="cls-14" d="M712.32,133.19l.15.18,3.39-2.72c-.03-.08-.05-.16-.08-.23l-3.46,2.78Z"/>
        <path class="cls-14" d="M711.88,132.59l.13.19,3.7-2.61c-.02-.08-.04-.16-.06-.24l-3.78,2.66Z"/>
        <path class="cls-14" d="M711.47,131.96l.12.2,4.01-2.46c-.01-.08-.03-.16-.04-.25l-4.09,2.51Z"/>
        <path class="cls-14" d="M711.11,131.31l.11.21,4.32-2.29c0-.08-.01-.17-.02-.25l-4.41,2.34Z"/>
        <path class="cls-14" d="M715.51,128.5l-4.73,2.14.1.21,4.63-2.1s0-.1,0-.14c0-.04,0-.07,0-.11Z"/>
        <path class="cls-14" d="M710.51,129.95l.08.22,4.93-1.87c0-.09.01-.17.02-.26l-5.03,1.91Z"/>
        <path class="cls-14" d="M710.27,129.24l.07.22,5.22-1.61c.01-.09.02-.17.04-.25l-5.32,1.64Z"/>
        <path class="cls-14" d="M710.08,128.52l.05.23,5.49-1.32c.02-.08.04-.17.06-.25l-5.6,1.35Z"/>
        <path class="cls-14" d="M714.52,126.98l-4.58.8.04.23,5.75-1.01s0-.02,0-.02h-1.21Z"/>
        <polygon class="cls-14" points="709.86 127.27 712.51 126.98 710.41 126.98 709.84 127.04 709.86 127.27"/>
        <g>
          <polygon class="cls-14" points="701.9 133.11 701.9 136.35 702.03 133.11 701.9 133.11"/>
          <polygon class="cls-14" points="702.1 136.49 702.31 136.49 702.31 136.49 702.53 136.49 702.53 136.49 702.75 136.49 703.76 133.11 703.54 133.11 702.53 136.47 703.31 133.11 703.09 133.11 702.32 136.42 702.88 133.11 702.66 133.11 702.11 136.39 702.45 133.11 702.23 133.11 701.9 136.36 701.9 136.49 702.09 136.49 702.1 136.49"/>
          <polygon class="cls-14" points="702.98 136.49 704.23 133.11 704 133.11 702.75 136.49 702.98 136.49"/>
          <polygon class="cls-14" points="703.22 136.49 704.72 133.11 704.48 133.11 702.99 136.49 703.22 136.49"/>
          <polygon class="cls-14" points="703.48 136.49 705.24 133.11 705 133.11 703.24 136.49 703.48 136.49"/>
          <polygon class="cls-14" points="703.76 136.49 705.79 133.11 705.54 133.11 703.51 136.49 703.76 136.49"/>
          <polygon class="cls-14" points="704.06 136.49 706.39 133.11 706.13 133.11 703.79 136.49 704.06 136.49"/>
          <polygon class="cls-14" points="704.38 136.49 707.04 133.11 706.77 133.11 704.11 136.49 704.38 136.49"/>
          <polygon class="cls-14" points="704.74 136.49 707.77 133.11 707.48 133.11 704.45 136.49 704.74 136.49"/>
          <polygon class="cls-14" points="705.14 136.49 708.58 133.11 708.27 133.11 704.84 136.49 705.14 136.49"/>
          <path class="cls-14" d="M707.94,141.76l7.49,2.25c-.06-.09-.12-.19-.19-.28l-10.29-3.09,9.64,2.24c-.08-.09-.16-.19-.25-.28l-9.35-2.17,8.6,1.44c-.1-.09-.21-.18-.31-.27l-8.26-1.38,7.45.77c-.13-.09-.26-.17-.39-.26l-7.04-.73,6.19.25c-.16-.08-.33-.16-.5-.23l-5.68-.23,4.82-.11c-.21-.07-.43-.14-.65-.2l-4.18.1,3.35-.29c-.31-.06-.62-.1-.93-.14l-2.44.21,1.72-.26c-.12,0-.25,0-.37,0-.68,0-1.35.06-1.99.18-.19.04-.39.08-.57.12,0,0,0,0,0,0h0s.11-.09.11-.09l.13-.12.09-.08.22-.19.06-.06.36-.31h0s.5-.45.5-.45l-.53.22.64-.32.63-.55-1.36.68,1.72-1,.75-.66.07-.06-2.66,1.54,3.77-2.52,1.24-1.08-5.13,3.42,6.13-4.67h-.35l-5.91,4.5,5.2-4.5h-.33l-3.89,3.37h.17l-2.35,2.05-.29.25-.41.35-.17.15-.07.06-.12.1h0s-.07.06-.07.06l-.02.02-.03.03h-.02s0,.02,0,.02v.02s0,0,0,0v.02s0,0,0,0h0s0,.02,0,.02h0s0,.02,0,.02h0s0,.01,0,.01h0s0,.03,0,.03h0s0,.01,0,.01h0s0,.01,0,.01h0s0,.01,0,.01h0s0,.02,0,.02h0s0,.02,0,.02h0s0,.02,0,.02h0s0,.02,0,.02h0s0,.02,0,.02h0s0,.01,0,.01h0s0,.01,0,.01h0v.03s0,0,0,0h0s0,.03,0,.03h0s0,.02,0,.02v.02s0,0,0,0v.02s0,.02,0,.02h0s0,.03,0,.03v.02s0,0,0,0v.03s0,.03,0,.03h0s0,.04,0,.04v.04s0,.02,0,.02v.03s0,.06,0,.06v.05s0,.02,0,.02v.09s0,.12,0,.12v.03s0,.14,0,.14v.23s0,.75,0,.75h0s.02-.02.03-.03c.01,0,.02-.01.03-.02.03-.02.06-.03.09-.04,0,0,.02,0,.03-.01.03-.01.06-.03.09-.04,0,0,.02,0,.02-.01.03-.01.06-.03.09-.04,0,0,.01,0,.02,0,.03-.01.06-.03.09-.04,0,0,.01,0,.02,0,.03-.01.06-.03.09-.04,0,0,.01,0,.02,0,.03-.01.06-.02.09-.04,0,0,.01,0,.02,0,.03-.01.06-.02.09-.04,0,0,.02,0,.03,0,.03-.01.06-.02.09-.03.01,0,.02,0,.03-.01.03-.01.06-.02.09-.03.01,0,.02,0,.04-.01.03,0,.06-.02.09-.03.02,0,.03,0,.05-.01.03,0,.06-.02.09-.03.02,0,.04-.01.06-.02.03,0,.06-.02.09-.03.03,0,.05-.01.08-.02.03,0,.06-.01.09-.02.04,0,.07-.02.11-.02.03,0,.06-.01.09-.02.05,0,.1-.02.15-.03.03,0,.05-.01.08-.01.07-.01.15-.02.22-.03.02,0,.04,0,.07,0,.11-.01.23-.02.35-.03.01,0,.02,0,.03,0,.09,0,.18,0,.28,0,.1,0,.21,0,.31,0l-.32-.12.42.13c.95.06,1.85.34,2.63.79Z"/>
          <path class="cls-14" d="M709.13,142.65l6.99,2.58c-.05-.09-.09-.19-.14-.28l-7.32-2.71c.16.13.32.26.47.4Z"/>
          <path class="cls-14" d="M709.91,143.54l6.73,2.98c-.03-.09-.06-.18-.1-.28l-6.91-3.06c.1.11.18.23.27.35Z"/>
          <path class="cls-14" d="M710.46,144.47l6.53,3.4c-.02-.09-.04-.18-.06-.27l-6.64-3.46c.06.11.12.22.17.33Z"/>
          <path class="cls-14" d="M710.82,145.42l6.34,3.82c0-.09-.01-.17-.02-.26l-6.42-3.87c.04.1.07.2.1.31Z"/>
          <path class="cls-14" d="M710.97,146.08c.02.1.03.19.04.29l6.15,4.25c0-.08.01-.17.01-.25l-6.2-4.29Z"/>
          <path class="cls-14" d="M711.06,147.11c0,.07,0,.14,0,.21l5.93,4.68c.02-.08.03-.16.04-.24l-5.97-4.71s0,.04,0,.06Z"/>
          <path class="cls-14" d="M710.95,148.25l5.04,4.52h.32l-5.32-4.77c-.01.08-.03.17-.04.25Z"/>
          <path class="cls-14" d="M710.71,149.13l3.57,3.63h.3l-3.8-3.86c-.02.08-.05.15-.08.23Z"/>
          <path class="cls-14" d="M710.35,149.97l2.43,2.8h.28l-2.61-3.01c-.03.07-.07.14-.1.21Z"/>
          <path class="cls-14" d="M709.88,150.73l1.55,2.04h.27l-1.69-2.22c-.04.06-.09.12-.13.18Z"/>
          <path class="cls-14" d="M709.3,151.42l.9,1.35h.26l-1.01-1.51c-.05.05-.1.11-.15.16Z"/>
          <path class="cls-14" d="M708.63,152.01l.44.76h.25l-.52-.9c-.06.05-.11.09-.17.13Z"/>
          <path class="cls-14" d="M707.88,152.49l.14.27h.24l-.19-.38c-.06.04-.12.07-.19.11Z"/>
        </g>
      </g>
      <g>
        <g>
          <g>
            <g>
              <path class="cls-14" d="M679.54,141.66c.31-.13.46-.26.46-.38,0-.14-.16-.23-.49-.26l-1.9-.19.06,9.23,1.86.07v-8.47Z"/>
              <path class="cls-14" d="M677.15,145.77h0s-1.37-1.49-1.37-1.49l-.99,1.12v-4.06s2.14-.02,2.14-.02h0c.24,0,.64.06-.03-.63h0s-1.28-1.26-1.28-1.26l-.91.97h-4.57l.18.94h1.96v4.2s-2.37,0-2.37,0l.17.85h2.2v6.47s2.43-.45,2.43-.45l.06-6.03h2.37c.22-.02.67.09,0-.61Z"/>
            </g>
            <path class="cls-14" d="M682.6,152.93c.36-.3.53-.7.53-1.24v-11.47c.38-.2.57-.37.57-.54,0-.14-.17-.23-.51-.28l-2.48-.23v11.76s.13,1.73-.45,2.43l2.34-.44Z"/>
          </g>
          <g>
            <path class="cls-14" d="M664.89,150.99v-2.66c.31-.13.47-.25.47-.36,0-.08-.07-.19-.23-.31l-1.6-1.09-.92.79h-1.26l-2.04-.55v5.4l2.13-.31v-1.21h1.18v.61l2.27-.31ZM661.44,149.97v-1.86h1.18v1.86h-1.18Z"/>
            <path class="cls-14" d="M668.73,140.26l-2.09-1.27-.94,1.13h-7.28l-2.35-.39v6.57c-.06,1.11-.37,4.76-2.06,6.8,0,0,4.13-.61,4.42-6.8h0v-.16c0-.07,0-.13,0-.2v-.57s.12.49.12.49h6.86c.16.03.54-.06.12-.49l.02.02-.1-.12c-.05-.05-.03-.04-.11-.11l-.98-1.04-.77.97-.54-.02v-1.43h2.18c.17,0,.7.07.02-.65h0s-.99-1.01-.99-1.01l-.77.86h-.43v-.64c.29-.12.43-.23.43-.36,0-.15-.16-.24-.49-.27l-2.19-.16v1.44h-1.96l.18.8h1.78v1.43h-2.38v-4.1h7.38v10.07s.13,1.72-.44,2.42l2.34-.43c.35-.29.53-.7.53-1.24v-10.67l.1-.05c.39-.19.59-.36.59-.49,0-.09-.08-.19-.22-.31Z"/>
          </g>
        </g>
        <g>
          <path class="cls-14" d="M640.15,130.85c.28-.38.56-.77.83-1.18,0,0,.78.08.88-.56,0,0,.05-.42-.65-.64l-4.52-1.5s-4.47,9.98-14.09,15.68c0,0,9.11-1.79,16.2-10.12.36.45,1.45,1.75,3.09,3.31,3.92,4.61,9.79,6.43,9.79,6.43.44-.94,4.53-5.03,4.53-5.03-9.39-.81-15.13-5.58-16.06-6.4Z"/>
          <path class="cls-14" d="M644.46,139.94l-2.59-2.32s-.46-.43-.8.1l-1.32,1.97-7.99-.03.24,1.11h12.05s1.11.12.4-.83Z"/>
          <path class="cls-14" d="M648.15,144.14l-3.22-1.5-1.57,1.04h-15l.25,1.13,14.22-.04-4.54,6.59c-.97,1.19-.79.97-1.34,1.39l4.34.66c1.04.09,1.91-1.13,1.91-1.13l4.5-6.48c.54-.18.81-.5.81-.5.58-.59-.36-1.15-.36-1.15Z"/>
        </g>
      </g>
      <g>
        <g>
          <path class="cls-14" d="M732.21,130.49c.15-1.14.97-2.32,2.83-2.32s2.69,1.16,2.69,2.37c0,1.14-.68,1.73-1.27,1.94v.03c.92.28,1.69,1.01,1.69,2.39,0,1.53-.96,2.92-3.13,2.92-2,0-2.93-1.28-3.09-2.52h.96c.21.89.9,1.68,2.18,1.68,1.48,0,2.07-.99,2.07-2.06,0-1.37-.88-1.95-2.2-1.95h-.6v-.82h.49c1.33,0,1.91-.54,1.91-1.59,0-.91-.62-1.55-1.74-1.55-1.18,0-1.66.63-1.86,1.47h-.93Z"/>
          <path class="cls-14" d="M747.57,132.92c0,2.21-.6,4.89-3.14,4.89s-3.12-2.48-3.12-4.82.7-4.82,3.17-4.82,3.09,2.47,3.09,4.75ZM742.34,133c0,1.79.35,3.96,2.1,3.96s2.11-2.07,2.11-4.04c0-1.79-.34-3.91-2.06-3.91s-2.15,1.92-2.15,3.98Z"/>
          <path class="cls-14" d="M751.57,138.59c-.05-.08-.58-1.18-.57-1.2,0-.01.27-.16.58-.32.62-.3.72-.37.79-.49.06-.12.06-2.46-.01-2.56-.13-.18-.56-.21-1.03-.05q-.18.06-.3-.19c-.13-.29-.13-.34-.04-.32.85.17,1.22.08,1.52-.34.3-.45.32-.45.88.02.65.54.72.67.38.79-.33.12-.33.11-.34,1.19,0,1.22.04,1.4.35,1.28.18-.07.56-1.39.69-2.42.1-.83.11-.95.11-3.64.01-2.06.02-2.64.05-2.67.02-.01.18.04.58.21q.56.22,2.51.23c2.32,0,2.11.04,2.45-.38.24-.29.26-.29.69.02.68.51.74.65.4.82-.24.13-.22-.21-.22,3.66,0,4.5.04,4.32-.86,4.54-.46.11-.55.1-.58-.1-.07-.46-.35-.68-1.06-.84-.07-.01-.11-.06-.09-.12.01-.04.05-.04.26-.02,1.01.06,1.16.05,1.24-.15.06-.13.07-3.51.01-3.65-.05-.13,0-.12-1.49-.11-1.39.02-1.46.02-2.2.12-.19.02-.23.02-.24,0-.34-.57-.34-.56.01-.51,1.08.11,1.18.07,1.21-.46.02-.74-.19-.9-.86-.66-.18.07-.18.06-.33-.22-.15-.28-.13-.3.05-.27.56.1,1.01.05,1.08-.11.05-.07.04-.85,0-1.01-.01-.04-.01-.05.04-.06.07-.02.06-.06-.05-.11-.18-.07-1.29-.07-1.41.01-.16.1-.23,2.45-.09,2.85.04.12.04.13-.01.32-.02.12-.06.38-.07.63-.11,1.85-.51,3.04-1.36,4.03-.33.38-.26.52.39.74.73.24,1.74.28,6.15.23,1.28-.01,1.31-.01.96.16-.26.13-.46.4-.56.77-.04.12-4.33.18-5.22.06-1.12-.13-1.79-.5-2.31-1.25-.34-.5-.33-.5-.94.23-.22.27-.52.62-.67.78-.13.16-.27.32-.27.35-.05.17-.12.23-.18.17ZM752.63,131.94c-.07-.02-.11-.06-.18-.19-.24-.41-.66-.89-1.07-1.25-.15-.12-.26-.22-.27-.23-.07-.19.96-.05,1.5.22.99.47,1,1.74.02,1.46ZM753.09,129.51q-.12-.04-.26-.29c-.19-.37-.45-.69-.88-1.12-.47-.47-.46-.5.16-.39.99.18,1.62.64,1.67,1.23.02.44-.3.71-.69.57ZM756.24,135.82c-.12-.01-.13-.06-.1-.77.04-.84.01-2.01-.06-2.63-.02-.17-.01-.17.43.02q.56.26,1.12.26c.6,0,.62-.01.86-.27.22-.26.3-.24.73.11.38.29.43.41.26.5-.24.12-.26.22-.22,1.25.04.96.06.85-.29,1.03-.37.17-.63.17-.63-.01,0-.07-.06-.15-.16-.21-.1-.05-.9-.04-.99.01-.09.06-.15.17-.15.29,0,.23-.45.46-.8.4ZM758.16,134.7c.16-.07.17-.13.17-.8q0-.85-.65-.85t-.65.85.65.85c.32,0,.4-.01.47-.05ZM758.63,131.4c.07-.04.18-.15.32-.33.18-.27.22-.27.5-.04.57.45.55.5.55-1.12s.16-1.45-1.22-1.45-1.56.05-.83.35c.45.19.54.28.35.38-.12.06-.17.39-.07.52.13.19.33.11.57-.26.15-.22.21-.22.54.05.62.52.55.67-.35.68-.83.01-.82,0-.82.63,0,.56.15.74.46.57Z"/>
          <path class="cls-14" d="M772.14,138.64c-.17-.04-.21-.12-.18-.4.07-1.11.09-2.42.02-2.56-.09-.17.02-.16-1.97-.16-1.81,0-2.11.01-2.8.1-.46.06-.41.09-.57-.21-.12-.24-.15-.32-.06-.32,1.46.12,1.87.11,1.96-.1.09-.17.04-2.43-.06-3.29-.05-.4-.1-.39.62-.11.84.34.68.32,1.78.32,1.27,0,1.14.13,1.14-1.17s.12-1.19-1.19-1.19c-1.21,0-1.13-.02-1.5.45-.77.97-1.91,2.04-2.58,2.4-.21.11-.24-.02-.06-.23,1.05-1.2,2.07-3.07,2.5-4.59.06-.22.12-.41.12-.43.01-.05.09-.05.21.01.06.02.26.11.44.18.86.37,1.07.52.82.62-.17.06-.23.13-.52.66-.39.66-.57.61,2.31.61s2.42.06,2.86-.52c.37-.49.33-.49.86-.09,1.18.89,1.16.91-1.11.93-2.2.01-1.94-.15-1.94,1.19,0,1.27-.07,1.17.8,1.17.77,0,.69.04,1.12-.54.3-.4.29-.4.78-.02,1.1.85,1.07.89-.96.9-1.98.01-1.74-.19-1.74,1.46s-.12,1.46,1.11,1.46c1.1,0,.96.06,1.51-.66.26-.33.24-.33.57-.1.51.37.96.8.95.93-.02.17.06.16-2.06.17-2.08.01-1.97,0-2.04.16-.05.1-.05.89-.01,1.89q.04.68-.05.77c-.19.21-.79.38-1.07.3ZM771.85,135.13c.17-.09.17-.06.17-1.41,0-1.63.12-1.46-1.13-1.46s-1.14-.17-1.14,1.46c0,1.36,0,1.34.16,1.42.13.06,1.83.06,1.95-.01Z"/>
          <path class="cls-14" d="M785.6,138.53c-.05-.06-.02-.12.08-.16.93-.34,1.2-.46,1.67-.71.62-.32,1.13-.68,1.49-1.05.35-.35.36-.43.08-.82-.1-.13-.21-.32-.26-.4-.2-.33-.29-.27-.68.43-.21.39-.25.46-.26.58-.02.22-.06.19-.38-.26-.33-.46-.32-.44-.15-.55.18-.13.76-.58.9-.71.18-.16.25-.26.27-.4.04-.17.06-.18.23-.11s.18.1.1.21c-.14.2-.08.35.31.77.5.52.69.39.96-.69.2-.77.19-.77-.93-.77-.95,0-1.01.01-1.06.29-.01.11-.05.15-.27.26-.56.26-.88.18-.84-.19.07-.95.08-3.25,0-4.04-.07-.75-.07-.74-.04-.74.01,0,.27.11.57.23.74.32.64.3,1.67.3,1.18,0,1.12.04,1.12-.71,0-.78.15-.71-1.7-.69-1.48.01-1.7.01-2.36.12-.29.04-.29.05-.43-.24-.12-.26-.13-.32-.01-.29.33.06.92.07,4.32.07,4.33.01,3.76.09,4.21-.52.29-.38.32-.41.46-.34.35.18,1.13.89,1.12,1.01-.02.18.1.17-2.24.18-2.56.01-2.28-.07-2.28.71s-.05.71,1.08.71q.98,0,1.19-.27c.37-.44.42-.44,1.07.12.43.36.45.45.19.6-.11.05-.23.19-.24.29-.02.13,0,2.39.04,2.92.04.51.05.47-.25.62-.5.26-.88.26-.89,0-.04-.38-.06-.39-1.13-.39-1.15,0-1.11-.02-1.23.55-.13.56-.27.95-.55,1.42-.25.44-.21.51.44.75.99.37,2.32.61,3.85.68,1.24.06,1.26.07.93.24-.26.13-.55.51-.63.86-.04.15-.02.15-.56.07-1.87-.26-3.28-.71-4.28-1.38-.49-.33-.43-.34-1.08.12-.77.52-1.87.95-3.25,1.25-.31.07-.32.07-.37.04ZM790.01,131.72c.24-.11.25-1.18.02-1.33-.11-.06-1.8-.06-1.9,0-.23.15-.21,1.22.02,1.33.13.07,1.73.07,1.86,0ZM790.01,133.53c.23-.15.25-1.25.02-1.39-.11-.06-1.8-.06-1.9,0-.21.13-.21,1.25,0,1.38.1.07,1.77.07,1.88.01ZM793.31,133.51c.2-.13.2-1.21,0-1.34-.11-.09-1.78-.1-1.9-.02-.21.13-.24,1.28-.02,1.39.12.07,1.83.05,1.93-.02ZM793.28,131.73c.24-.12.26-1.16.04-1.32-.11-.09-1.78-.1-1.9-.02-.23.15-.21,1.22.02,1.33.12.06,1.73.07,1.84.01Z"/>
          <path class="cls-14" d="M806.98,138.56s-.02-.06-.02-.1c0-.54-.35-.91-.96-1.07-.26-.07-.32-.11-.29-.18.01-.04.04-.04.17-.02,1.02.1,1.38.07,1.48-.11.07-.13.07-3.83,0-3.93-.14-.21-1.01-.21-2.02-.02-.24.04-.23.05-.33-.15-.18-.33-.25-.26-.44.46-.1.4-.24.83-.43,1.36-.1.26-.07.3.26.65.68.68.99,1.47.74,1.94-.2.41-.67.37-.86-.09-.26-.66-.59-1.14-.76-1.14-.1,0-.14.05-.39.35-.61.73-1.33,1.32-2.22,1.78-.26.13-.27.13-.31.1-.06-.07-.05-.11.1-.19.74-.5,1.56-1.45,2.02-2.35.24-.47.23-.56-.17-.93-.44-.43-.58-.41-.7.05-.07.29-.35.38-.86.29-.25-.05-.25-.02-.1-.52.32-1.07.94-3.58.94-3.82,0-.28-.35-.35-.83-.18q-.2.07-.33-.2c-.14-.3-.15-.33-.02-.3.8.12,1.26.09,1.37-.13.12-.23.37-1.95.37-2.52,0-.35-.04-.34.46-.22.84.21,1.08.34.77.47-.12.05-.18.22-.31.84-.06.3-.15.72-.19.9-.14.65-.11.72.33.72.36,0,.39-.02.69-.34.32-.35.33-.35.84.12.48.44.54.6.27.68-.19.07-.26.2-.31.54-.01.11-.05.4-.08.63-.05.39-.06.6-.01.65.07.06,2.28.11,2.4.05.18-.1.2-.58.08-1.75-.05-.43-.06-.4.21-.37.63.11.68.09,1.33-.95.58-.91.63-.88-1.15-.85-1.24.01-1.46.02-2.09.11-.38.05-.35.07-.5-.23-.17-.3-.17-.32.06-.29.54.05,1.05.06,2.5.06,1.93,0,1.71.04,2.09-.34.37-.37.33-.37.81.07.58.52.65.75.26.75-.11,0-.35.15-.61.38-.37.32-.86.73-1.18.99-.32.26-.42.44-.26.47.11.02,0,.26-.12.26-.14,0-.2.26-.2.91q0,.82.65.82t.89-.51c.3-.45.36-.44.99.21.63.63.62.65-1.04.65s-1.49-.35-1.5,2.41c-.01,1.98-.01,2.19-.06,2.32-.13.46-.51.73-1.18.83-.06.01-.13.02-.17.02-.04.01-.07,0-.1-.01ZM803.22,134.48c.19-.18.51-1.62.65-2.98.1-.83.05-.89-.54-.88q-.46.01-.65.85c-.07.32-.24,1-.36,1.51-.31,1.27-.32,1.17.27,1.4.19.07.36.13.38.15.06.02.19-.01.24-.05Z"/>
          <path class="cls-14" d="M816.51,138.16c-.26-.06-.26-.09-.21-.83.07-1.13.08-1.81.08-4.24s-.01-2.86-.08-3.59c-.05-.44-.05-.46,0-.46.02,0,.25.1.5.22.81.38.84.37.94-.45.06-.46.1-1.02.1-1.31,0-.26-.04-.26.51-.11.99.26,1.18.37.92.5-.17.09-.79.96-.95,1.36-.2.46.84.45,1.21-.01.2-.24.25-.29.32-.29.15,0,.89.6,1,.82.06.1.05.11-.17.23q-.25.15-.25,1.17c.01.73.02.88.05.96.05.1.05.12,0,.28-.06.21-.06,2.96,0,4.29.04.79.05.74-.3.91-.62.3-.81.24-.81-.27s.02-.5-.99-.5-1.01,0-.99.6q.01.34-.1.44c-.19.19-.58.33-.79.29ZM819.26,132.87c.14-.09.14-.12.14-1.51-.01-1.63.1-1.47-1.05-1.47-1.09.01-.98-.16-.98,1.53,0,1.39,0,1.38.14,1.46.11.09,1.63.07,1.74-.01ZM819.26,136.43c.14-.1.14-.11.14-1.59-.01-1.73.1-1.56-1.02-1.56s-1-.18-1,1.62c0,1.49,0,1.46.14,1.55.11.09,1.63.07,1.74-.01ZM823.65,138.53s-.04-.11-.05-.21c-.04-.55-.36-.83-1.14-1.02-.23-.05-.29-.1-.24-.17.04-.06.01-.06.67,0,1.26.11,1.43.05,1.61-.62.21-.79.37-3.13.39-5.73,0-1,.12-.91-1.2-.91-1.23,0-1.15-.02-1.48.54-.5.86-1.37,2-1.53,2-.14,0-.13-.05.13-.58.64-1.38,1.08-2.86,1.23-4.16.05-.46.01-.43.48-.29.94.3,1.23.47.98.58-.15.07-.21.17-.45.77-.35.85-.39.82.79.82,1.02,0,.93.02,1.27-.36.33-.39.32-.39.71-.05.65.56.74.72.44.88-.27.15-.26.11-.3,1.3-.12,4.87-.36,6.33-1.07,6.89-.33.26-1.13.49-1.23.35ZM822.91,134.77c-.24-.09-.26-.12-.31-.37-.13-.62-.45-1.35-.93-2.06-.26-.39-.19-.41.42-.11,1.11.56,1.73,1.42,1.51,2.14-.1.33-.4.51-.69.39Z"/>
          <path class="cls-14" d="M840.46,132.73c-.15-.06-.2-.1-.25-.23-.07-.18-.37-.78-.46-.93-.17-.26-.27-.28-.75-.2-1.06.21-3.5.6-5.44.88-1.27.18-1.44.22-1.59.35-.14.11-.2.11-.24.01-.14-.54-.32-1.34-.3-1.36.01-.01.43-.02.93-.04,1.18-.04,1.07.02,1.43-.73.56-1.18.88-2.03,1.11-2.95.06-.22.11-.4.12-.41.01-.01.24.07.5.18.27.1.58.22.7.26.5.15.59.24.35.34-.13.06-.25.18-.52.6-.48.71-1.05,1.46-1.5,2-.56.66-.52.68.84.63,3.51-.13,3.72-.15,3.77-.27.06-.17-.31-.65-1.11-1.42-.52-.52-.52-.58,0-.39,1.67.62,2.8,1.58,3.11,2.62.21.71-.14,1.25-.69,1.06ZM832.92,138.6c-.21-.05-.23-.1-.18-.91.06-1.05.08-2.15.08-3.43,0-.82.01-1.17.02-1.17s.25.11.52.24c.71.35.39.32,2.97.32s2.38.04,2.71-.39q.3-.35.76,0c.71.54.79.68.46.85-.3.17-.31.24-.25,2.32.06,1.95.1,1.75-.4,1.92-.65.23-.8.17-.77-.34.04-.61.29-.55-2.45-.55s-2.46-.05-2.46.47q0,.27-.08.34c-.19.18-.71.35-.94.32ZM838.72,137.09c.17-.09.17-.05.18-1.49,0-1.86.37-1.62-2.49-1.62s-2.49-.24-2.49,1.62c.01,1.44.01,1.4.18,1.49.11.05,4.5.06,4.62,0Z"/>
          <path class="cls-14" d="M847.33,138.55c-.24-.11-.32-.4-.26-.89.19-1.49.02-2.25-.51-2.37-.31-.06-.27-.23.06-.26.45-.02.45-.04.88-1.42.51-1.63.51-1.72.17-1.52-.35.18-.59.07-.73-.37-.12-.39-.43-.97-.7-1.33-.1-.12.1-.13.38-.04.59.22,1.09.61,1.2.95.18.54.25.45.59-.71q.21-.71.31-.71c.07.01.08.1.04.32-.06.3.04.35.49.27.33-.07.58-.68.27-.68-.1,0-.18-.07-.2-.18-.05-.16-.26-.56-.39-.73-.19-.23-.17-.3.11-.23s.33.01.55-.63c.21-.63.24-.71.27-.71.13,0,.76.29.8.38.04.05-.04.13-.11.13-.06,0-.23.17-.32.32-.05.07-.14.19-.21.28-.33.38-.38.61-.14.73.14.07.21-.02.38-.5.12-.39.14-.4.27-.32.81.5,2.33.63,2.63.22.21-.3-.19-.41-.98-.27-.51.1-.45.12-.59-.18-.15-.32-.15-.3.19-.27.73.09.96.05,1.17-.18.3-.34.29-.34.51-.18.48.32.62.6.36.73-.06.04-.08.16-.02.24.11.16.65.24.77.11.1-.1.29-.77.35-1.2.02-.17.1-.16.64.11.36.18.42.28.21.35-.12.05-.2.13-.51.52-.37.45-.39.52-.25.73.2.29.32.18.52-.43.13-.39.11-.38.38-.24.64.3.8.46.54.55-.13.05-.24.15-.45.43-.11.15-.3.37-.4.5-.4.44-.38.57.07.57.37,0,.49-.13.33-.39-.12-.21-.07-.27.15-.17.69.29,1.04.9.69,1.23-.14.13-.4.07-.46-.11-.13-.45-.57-.28-.55.21.02.23.15.52.15.33,0-.27.7.27.89.67.23.49.05.97-.32.88-.15-.05-.19-.11-.24-.4-.06-.41-.27-.99-.36-1-.1-.01-.12.17-.13.94q-.01.73-.08.79c-.27.21-.27.27,0,.54.24.23.26.29.13.36-.15.09-.2.29-.17.77q.02.33-.04.41c-.08.13-.07.17.17.33.61.41.79.67.55.79-.23.11-.3.22-.39.54-.25.96-.79,1.41-1.69,1.42q-.25,0-.27-.15c-.1-.49-.43-.72-1.25-.85-.11-.01-.17-.1-.12-.15.04-.04.14-.02.73.01,1.24.1,1.36.06,1.56-.38.25-.52.33-.5-2.24-.5s-2.34-.02-2.46.3c-.07.22-.39.27-.89.13-.13-.04-.13-.05,0-.46.15-.49.3-1.08.38-1.58.07-.49.07-.47.4-.29.81.47.58.44,2.62.44s1.93.02,1.96-.35c.05-.5.13-.47-1.97-.47s-2.45.02-2.72.17c-.13.06-.14.06-.2.02-.04-.01-.11-.04-.15-.05-.07-.01-.1-.04-.21-.27q-.15-.32.14-.29c1.07.1,4.81.11,5.02.01.45-.22.74-1.45.42-1.78-.11-.11-.19-.04-.42.39-.3.56-.45.76-.56.72-.1-.04-.1-.07.01-.49.05-.22.11-.5.12-.63.1-.79.07-.78.43-.62.3.13.45.09.48-.16.02-.32-.29-.35-.65-.07-.13.1-.13.09-.25-.16-.11-.23-.19-.32-.3-.29-.17.02-.32.06-.42.1-.11.02-.13.02-.25-.01-.51-.13-1.39.07-1.18.29.3.29.77.29,1.07.01.23-.21.25-.21.54.01.36.28.42.38.26.5-.18.15-.21.38-.15,1,.05.43-.01.54-.36.66-.29.09-.38.06-.38-.1,0-.05-.02-.11-.05-.15-.19-.24-.69-.12-.69.17,0,.11-.21.24-.44.27-.25.04-.31-.04-.3-.36,0-.37-.07-.47-.26-.37-.13.07-.36,0-.38-.12-.14-1.07-.37-1.07-.36,0,.01.73.02.71-.26.82-.48.18-.52.12-.51-.57.02-.85-.05-.89-.48-.23-.37.57-.51.71-.62.58-.04-.04-.04-.05.04-.24.13-.35.26-.96.31-1.39.04-.28.02-.28.36-.15.25.1.38.05.4-.17.02-.29-.24-.34-.52-.1-.12.1-.14.09-.23-.12-.12-.32-.23-.44-.3-.34-.1.1-.07-.01-.4,1.74-.52,2.73-.54,2.87-.31,3.79.39,1.52.06,2.61-.68,2.25ZM847.89,129.34c-.18-.06-.2-.09-.29-.34-.13-.4-.4-.93-.67-1.27q-.18-.23-.14-.27c.13-.17,1.21.38,1.5.74.44.6.18,1.35-.4,1.13ZM852.78,130.45c.11-.05.21-.17.24-.26.06-.24-.23-.28-.96-.13-.3.06-.29.07-.43-.21-.15-.3-.15-.32,0-.29,1.04.11,1.28.06,1.37-.28.05-.17.01-.18-.88-.19-.62-.01-.8-.02-.83-.05-.13-.11-.35.02-.61.39-.11.15-.26.34-.36.45-.38.4-.38.56,0,.56.3,0,.43-.16.3-.39-.18-.3.21-.21.63.17.2.18.25.21.65.24.52.05.76.05.88-.01ZM851.55,131.95c.04-.12.05-.67.01-.76-.02-.07-.1-.09-.25-.02-.18.06-.39-.05-.39-.2,0-.11-.12-.19-.24-.18-.13.01-.21.26-.17.49.02.15.1.3.12.24.02-.13.24-.01.56.32.26.26.31.28.36.11ZM855.05,136.15s.13-.1.17-.15c.15-.23.12-.28-.21-.26-.25.01-.29,0-.29-.1,0-.05-.07-.13-.15-.18-.1-.04-3.7-.04-3.8.01-.26.13-.33.61-.11.71.14.07,4.26.04,4.39-.04ZM852.87,132.58c.33-.21.15-.86-.23-.86-.26,0-.37.12-.37.45,0,.39.3.58.59.41ZM854.57,130.44c.35-.11.5-.61.2-.66-.13-.02-.18-.07-.25-.23-.15-.4-.29-.5-.62-.46-.37.04-.42.1-.24.32.19.24.23.3.23.35,0,.07-.11.18-.17.18-.21,0-.15.27.11.46.11.09.51.11.74.04Z"/>
        </g>
        <g>
          <path class="cls-14" d="M732.55,145.98h2.4c1.32,0,1.98.7,1.98,1.63,0,.77-.46,1.28-.98,1.44.47.14,1.21.6,1.21,1.6,0,1.28-.97,1.91-2.16,1.91h-2.45v-6.58ZM734.78,148.76c1.05,0,1.46-.4,1.46-1.11,0-.62-.44-1.09-1.29-1.09h-1.74v2.2h1.57ZM733.21,151.97h1.75c.85,0,1.5-.41,1.5-1.31,0-.78-.5-1.31-1.73-1.31h-1.52v2.62Z"/>
          <path class="cls-14" d="M744.83,149.39h-3.32v2.57h3.64l-.09.59h-4.21v-6.58h4.14v.6h-3.48v2.23h3.32v.59Z"/>
          <path class="cls-14" d="M750.29,146.57h-2.17v-.6h5.03v.6h-2.18v5.98h-.68v-5.98Z"/>
          <path class="cls-14" d="M758.17,146.57h-2.17v-.6h5.03v.6h-2.18v5.98h-.68v-5.98Z"/>
          <path class="cls-14" d="M768.22,149.39h-3.32v2.57h3.64l-.09.59h-4.21v-6.58h4.14v.6h-3.48v2.23h3.32v.59Z"/>
          <path class="cls-14" d="M772.72,149.56v2.99h-.67v-6.58h2.45c1.32,0,2.02.71,2.02,1.74,0,.84-.49,1.38-1.18,1.54.61.15,1.07.58,1.07,1.7v.27c0,.46-.03,1.06.09,1.32h-.67c-.12-.28-.1-.8-.1-1.39v-.16c0-1.02-.29-1.45-1.52-1.45h-1.49ZM772.72,148.97h1.52c1.09,0,1.58-.41,1.58-1.22,0-.76-.49-1.19-1.46-1.19h-1.64v2.41Z"/>
          <path class="cls-14" d="M781,145.98v6.58h-.67v-6.58h.67Z"/>
          <path class="cls-14" d="M785.7,152.55v-6.58h.93c.99,1.56,3.23,5.05,3.63,5.77h.01c-.06-.9-.05-1.9-.05-2.97v-2.79h.66v6.58h-.87c-.93-1.48-3.23-5.17-3.68-5.9h-.01c.05.81.04,1.84.04,3.03v2.86h-.66Z"/>
          <path class="cls-14" d="M800.68,152.55h-.53c-.04-.1-.06-.42-.07-.98-.26.46-.8,1.06-2.09,1.06-1.89,0-2.88-1.44-2.88-3.31,0-1.97,1.05-3.44,3.01-3.44,1.47,0,2.42.78,2.62,1.98h-.67c-.26-.84-.85-1.39-1.96-1.39-1.59,0-2.28,1.25-2.28,2.82,0,1.44.67,2.75,2.22,2.75s1.98-1.03,1.98-2.33v-.07h-2v-.59h2.65v3.5Z"/>
          <path class="cls-14" d="M811.68,146.57h-2.17v-.6h5.03v.6h-2.18v5.98h-.68v-5.98Z"/>
          <path class="cls-14" d="M818.36,150.42l-.78,2.14h-.68l2.38-6.58h.81l2.48,6.58h-.72l-.8-2.14h-2.7ZM820.87,149.82c-.68-1.85-1.05-2.78-1.18-3.25h0c-.16.53-.57,1.67-1.12,3.25h2.31Z"/>
          <path class="cls-14" d="M827.18,145.98v6.58h-.67v-6.58h.67Z"/>
          <path class="cls-14" d="M832.92,152.55l-1.8-6.58h.7c.47,1.84,1.34,5.06,1.48,5.82h0c.15-.72,1.15-4.11,1.59-5.82h.69c.42,1.54,1.4,5.17,1.52,5.8h0c.21-1.02,1.23-4.33,1.64-5.8h.67l-1.97,6.58h-.74c-.42-1.53-1.36-5.04-1.49-5.7h0c-.18.91-1.12,4.12-1.57,5.7h-.73Z"/>
          <path class="cls-14" d="M843.64,150.42l-.78,2.14h-.68l2.38-6.58h.81l2.48,6.58h-.72l-.8-2.14h-2.7ZM846.15,149.82c-.68-1.85-1.05-2.78-1.18-3.25h0c-.16.53-.57,1.67-1.12,3.25h2.31Z"/>
          <path class="cls-14" d="M851.79,152.55v-6.58h.93c.99,1.56,3.23,5.05,3.63,5.77h.01c-.06-.9-.05-1.9-.05-2.97v-2.79h.66v6.58h-.87c-.93-1.48-3.23-5.17-3.68-5.9h-.01c.05.81.04,1.84.04,3.03v2.86h-.66Z"/>
        </g>
      </g>
      <rect class="cls-14" x="691.88" y="127.16" width=".36" height="26"/>
    </g>
    <g>
      <g>
        <g>
          <path class="cls-11" d="M468.67,141.61c-.26.33-.54.63-.89.83-.44.26-.95.39-1.42.56-.76.24-1.54.09-2.21-.33-1.41-.91-1.93-2.73-1.16-4.22,1.14-2.26,4.36-4.18,6.47-2.02.59.6.89,1.37.77,2.2-.11.79-.47,1.48-.93,2.12-.2.27-.4.58-.63.86"/>
          <path class="cls-11" d="M479.15,139.04c-.06-2.02.18-3.71-.35-5.67-.21-.75-.46-1.88-.87-2.52-.57-.89-.95-1.84-1.8-2.58-.81-.82-1.59-1.38-2.47-1.83-.3-.16-.64-.23-.95-.33-.59-.17-1.27-.43-1.86-.54-.23-.04-.46-.08-.7-.13-.47-.1-.92-.24-1.4-.33-.44-.07-.92-.22-1.37-.21-.72.02-1.39.32-2.11.4-.73.07-1.47-.04-2.19.15-.54.14-1.01.46-1.54.64-.89.3-1.78.51-2.36,1.29-1.26,1.01-2.43,2.29-3.07,3.8-.63,1.51-.52,3.21-1.09,4.74-.37,1.01-.86,2.02-.91,3.12-.1,2.8-1.15,5.53-1.23,8.37-.04,1.34.22,2.67.77,3.9.51,1.13,1.19,1.67,2.18,2.38.6.42,1.24.81,1.91,1.13.71.34,1.42.67,2.21.71.77.05,1.53-.03,2.29-.06.58-.02,1.16,0,1.74-.09.87-.14,1.74-.32,2.55-.6.89-.32,1.89-.9,2.79-1.23.81-.29,1.48-.89,2.19-1.33.49-.3.8-.3,1.28-.63.52-.35.87-.88,1.38-1.25.98-.73,1.31-1.33,2-2.27.66-.93,1.17-1.71,1.52-2.83.32-1.02.55-2.09,1.1-3.01.53-.89.4-2.18.37-3.17M472.47,138.7c-.31,1.57-.59,3.6-1.41,5-.5.84-1.32,1.05-2.07,1.6-.38.25-.95.3-1.41.54-.55.31-1.06.77-1.7.88-1.43.22-3.83.46-5.14-.29-.25-.14-.88-.8-1.1-1.03-1.17-1.24-1.2-2.63-.97-4.2.27-1.96,1.24-3.72,2.2-5.42.72-1.24,1.41-2.94,2.74-3.61.76-.38,1.61-.48,2.39-.76.73-.26,1.4-.73,2.2-.76.53-.02,1.85.32,2.32.58.75.4,1.36,1.24,1.65,2.02.67,1.77.66,3.59.3,5.44M476.02,133.08c-.04-.36-.57-1.66-.97-2.23-.65-.91-2.28-1.99-2.28-1.99-.15-.32.52.03.52.03,2,1.45,2.65,2.6,3.2,4.21.27.78-.38.64-.47-.02"/>
        </g>
        <path class="cls-5" d="M495.22,142.84h5.82c-1.09,2.93-3.89,4.91-7.06,4.91-4.16,0-7.54-3.38-7.54-7.53s3.38-7.54,7.54-7.54c2.17,0,4.23.94,5.67,2.58l.19.21h2.61l-.74-.99c-1.81-2.43-4.7-3.88-7.72-3.88-5.3,0-9.62,4.32-9.62,9.62s4.32,9.62,9.62,9.62c4.83,0,8.93-3.61,9.54-8.39l.09-.7h-8.38v2.1Z"/>
        <rect class="cls-5" x="504.89" y="130.7" width="2.1" height="18.87"/>
        <path class="cls-5" d="M515.39,135.59c-3.92,0-7.11,3.19-7.11,7.11s3.19,7.11,7.11,7.11,7.1-3.19,7.1-7.11-3.19-7.11-7.1-7.11M515.39,147.72c-2.77,0-5.02-2.25-5.02-5.02s2.25-5.02,5.02-5.02,5.02,2.25,5.02,5.02-2.25,5.02-5.02,5.02"/>
        <path class="cls-5" d="M553.44,142.03c0-.07-.02-.14-.02-.21-.44-3.55-3.47-6.23-7.05-6.23-3.92,0-7.1,3.19-7.1,7.11s3.19,7.11,7.1,7.11c1.88,0,3.66-.75,4.98-2.04v1.8h2.1v-7.54ZM551.35,143.32c-.31,2.51-2.46,4.4-4.98,4.4-2.77,0-5.02-2.25-5.02-5.02s2.25-5.02,5.02-5.02c2.53,0,4.67,1.89,4.98,4.4.03.22.04.42.04.62s-.01.4-.04.62"/>
        <rect class="cls-5" x="555.18" y="130.7" width="2.1" height="18.87"/>
        <polygon class="cls-5" points="575.25 146.29 567.39 130.69 565.53 130.69 565.53 149.57 567.63 149.57 567.63 135.64 574.65 149.57 575.85 149.57 582.86 135.64 582.86 149.57 584.96 149.57 584.96 130.69 583.1 130.69 575.25 146.29"/>
        <path class="cls-5" d="M530.86,135.59c-1.87,0-3.66.75-4.97,2.04v-6.94h-2.1v12.67c0,.07.02.14.03.21.44,3.55,3.47,6.23,7.05,6.23,3.92,0,7.11-3.19,7.11-7.11s-3.19-7.11-7.11-7.11M530.86,147.72c-2.52,0-4.67-1.89-4.98-4.4-.03-.22-.04-.42-.04-.62s.01-.41.04-.62c.31-2.51,2.45-4.4,4.98-4.4,2.77,0,5.02,2.25,5.02,5.02s-2.25,5.02-5.02,5.02"/>
        <path class="cls-5" d="M600.44,142.03c0-.07-.02-.14-.03-.21-.44-3.55-3.47-6.23-7.05-6.23-3.92,0-7.11,3.19-7.11,7.11s3.19,7.11,7.11,7.11c1.88,0,3.66-.75,4.98-2.04v1.8h2.1v-7.54ZM598.34,143.32c-.31,2.51-2.45,4.4-4.98,4.4-2.77,0-5.02-2.25-5.02-5.02s2.25-5.02,5.02-5.02c2.53,0,4.67,1.89,4.98,4.4.03.22.04.42.04.62s-.01.4-.04.62"/>
        <rect class="cls-5" x="602.17" y="130.7" width="2.1" height="18.87"/>
        <rect class="cls-5" x="606" y="130.7" width="2.1" height="18.87"/>
      </g>
      <g>
        <path class="cls-5" d="M170.16,128.19h-26.3l-.06,6.87h1.4v1.68h11.19v-2.83h-9.82v-2.93h22.29v3.94h2.48v-5.12c0-1.52-1.18-1.62-1.18-1.62ZM165.04,133.02v3.02h-7.16v2.89h7.16v7.57h-3.4c.26.1.86,2.42.86,2.42h4.07c.99,0,1.27-1.46,1.27-1.46v-8.52h3.43v-2.89h-3.43v-3.02h-2.8ZM160.43,147.68l2.73-7.76h-3.12l-2.73,7.76h3.12ZM154.64,150.1v-7.28h2.67v-2.89h-13.45v2.93l2.61-.1s.54,4.16-3.21,10.14h3.21s2.93-4.39,2.89-10.08h2.48v8.49s-.13,1.68,1.46,1.68h12.72s3.72-.76,5.31-2.29v-3.53s-2.96,2.92-5.92,2.92h-10.78ZM183.77,143.58h18.73v-2.61h-18.73v2.61ZM194.68,127.62h-2.99v1.34h-7.85v2.89h7.85v1.05h-7.85v6.87h18.67v-5.4c0-1.27-1.21-1.46-1.21-1.46h-6.61v-1.05h7.85v-2.89h-7.85v-1.34ZM189.17,137.31h-2.39v-1.94h2.39v1.94ZM197.35,135.38h2.39v1.94h-2.39v-1.94ZM194.45,137.31h-2.39v-1.94h2.39v1.94ZM195.17,144.63h-2.86l1.16,4.14h2.99l-1.29-4.14ZM199.35,150.04h-8.71v-5.41h-2.8v7.32s.03.86,1.27.86h10.75s1.87-.35,2.57-1.15v-3.18s-.95,1.27-3.08,1.56ZM199.58,144.63h-2.9l1.21,4.17h2.83l-1.14-4.17ZM183.86,144.63c0,.7-.09,5.22-1.49,8.21h3.02s1.54-3.19,1.43-8.21h-2.96ZM182.78,135.84v-1.94c-.32.43-3.16,4.13-8.05,6.46v3.34c.19-.09,1.23-.59,2.55-1.37v10.55h2.89v-12.49c.98-.76,1.91-1.62,2.57-2.51l.03-2.02ZM182.78,131.37h0v-3.94c-.67.83-3.96,4.73-8.05,6.99v3.57c.79-.43,5.06-2.84,8.05-6.61ZM224.47,150.07v-1.96h8.74v-2.74h-8.74v-1.43h7.91v-2.74h-7.91v-1.3h7.91v-4.05h1.55v-2.74h-1.55v-2.52c0-1.48-1.65-1.53-1.65-1.53h-6.26v-1.22h-3.02v1.22h-7.01v2.74h7.01v1.3h-7.72v2.74h7.72v1.3h-7.01v2.74h7.01v1.3h-7.01v2.74h7.01v1.43h-7.38v2.74h7.38v1.95l-6.15-.02c-2.17-.5-2.77-2.27-2.77-2.27v-7.94c0-1.36-.85-1.82-.85-1.82.6-.16.92-1.24.92-1.24v-6.23c0-1.3-1.72-1.5-1.72-1.5h-5.09v2.77h3.92v3.58c0,2.86-3.96,2.84-3.96,2.84v2.89h3.91v5.48c-.62,2.74-3.96,3.36-3.96,3.36v3.01c3.7-.48,5.2-2.67,5.2-2.67,1.41,2.31,4.17,2.62,4.17,2.62h13.21c1.55,0,3.15-.48,3.15-.48l2.69-1.24v-2.96c-1.86,1.34-4.56,1.84-4.56,1.84l-5.12-.02ZM224.47,131.8h5.09v1.3h-5.09v-1.3ZM224.47,135.84h5.09v1.3h-5.09v-1.3ZM236.62,136.71h12.21v-2.83h-12.21v2.83ZM236.62,140.62h12.21v-2.83h-12.21v2.83ZM247.27,142.12h-10.62l.03,10.84h12.12v-9.12c0-1.65-1.53-1.72-1.53-1.72ZM246,150h-6.49v-5.06h6.49v5.06ZM255.25,130.99h5.41v6.17c0,1.18,1.9,1.27,1.9,1.27h2.26v-2.8h-1.3v-5.75c0-1.62-1.65-1.78-1.65-1.78h-9.47c-.57,7.44-2.99,10.33-2.99,10.33h3.18c1.81-2.07,2.67-7.44,2.67-7.44ZM260.5,149.88c3.43-2.2,4.32-8.01,4.32-8.01,0-2.26-1.3-2.39-1.3-2.39h-13.96c.26,7.95,4.52,10.4,4.52,10.4h-4.36v2.89h5.25c1.4-.29,2.51-.99,2.51-.99,1.94,1.08,3.15.95,3.15.95h4.23v-2.86h-4.36ZM257.32,148.89s-3.53-1.4-4.33-6.58h8.75s-.41,4.13-4.42,6.58ZM249.53,129.91h-5.28v-1.75h-2.96v1.75h-5.25v2.83h13.48v-2.83Z"/>
        <path class="cls-2" d="M122.22,123.82c-9.34,0-16.93,7.34-16.93,16.4s7.59,16.39,16.93,16.39,16.94-7.34,16.94-16.39-7.58-16.4-16.94-16.4ZM118.36,154.79c-.44-.13-.86-.25-1.27-.39v-10.12c-.82.78-1.94,1.28-3.19,1.28-2.5,0-4.51-1.95-4.51-4.36s2.01-4.36,4.51-4.36,4.47,1.96,4.47,4.36v13.6ZM120.66,136.42v18.75c-.39-.04-.75-.09-1.13-.15v-13.3c.02-.16.03-.33.03-.52,0-3.02-2.53-5.49-5.65-5.49-.79,0-1.55.16-2.23.45,0-.08-.01-.18-.01-.26,0-2.41,2.02-4.37,4.52-4.37s4.51,1.96,4.51,4.37c0,.18,0,.34-.03.52ZM122.62,155.23c-.13,0-.25.04-.4.04-.12,0-.25-.04-.38-.04v-19.33c0-2.43-1.62-4.48-3.88-5.2.56-1.8,2.29-3.12,4.33-3.12s3.74,1.3,4.31,3.08c-2.31.7-3.98,2.76-3.98,5.24v19.33ZM124.92,155.02c-.36.06-.75.11-1.12.15v-18.75c-.03-.19-.04-.34-.04-.52,0-2.41,2.02-4.37,4.52-4.37s4.5,1.96,4.5,4.37c0,.08,0,.18,0,.26-.68-.29-1.44-.45-2.22-.45-3.13,0-5.66,2.46-5.66,5.49,0,.19.01.36.02.52v13.3ZM127.37,154.41c-.43.14-.84.26-1.28.39v-13.6c0-2.4,1.98-4.36,4.47-4.36s4.51,1.96,4.51,4.36-2.01,4.36-4.51,4.36c-1.24,0-2.37-.49-3.19-1.28v10.12ZM128.41,154.03l.06-7.74c.64.26,1.34.39,2.09.39,3.13,0,5.66-2.45,5.66-5.47,0-1.83-.93-3.44-2.35-4.44.05-.29.07-.57.07-.86,0-3.02-2.54-5.47-5.66-5.47-.19,0-.37,0-.55.02-.68-2.29-2.87-3.99-5.44-3.99s-4.79,1.7-5.46,4c-.21,0-.44-.03-.66-.03-3.13,0-5.66,2.45-5.66,5.47,0,.3.03.57.07.86-1.43,1-2.34,2.61-2.34,4.44,0,3.02,2.52,5.47,5.65,5.47.74,0,1.44-.13,2.09-.39l.05,7.74c-5.51-2.35-9.37-7.64-9.37-13.81,0-8.33,6.97-15.06,15.55-15.06s15.55,6.73,15.55,15.06c0,6.17-3.86,11.47-9.36,13.81Z"/>
      </g>
      <g>
        <g>
          <path class="cls-1" d="M322.94,140.21c0,8.47-8.66,15.34-19.35,15.34s-19.35-6.87-19.35-15.34,8.66-15.34,19.35-15.34,19.35,6.87,19.35,15.34"/>
          <polygon class="cls-10" points="300.34 140.21 307.87 134.92 307.87 129 300.34 133.9 300.34 140.21"/>
          <polygon class="cls-9" points="300.34 140.21 300.34 133.9 307.87 129 307.87 126.89 298.82 132.97 298.82 141.22 308.28 147.3 308.28 145.5 300.34 140.21"/>
          <polygon class="cls-10" points="298.82 147.22 308.28 153.99 308.28 147.3 298.82 141.22 298.82 147.22"/>
        </g>
        <g>
          <path class="cls-7" d="M326.92,133.9c.87.16,2.12.24,3.73.24h.45v-1.92c0-1.67-.11-3.14-.32-4.4.76.07,1.73.2,2.9.37.82.11,1.23.28,1.23.51,0,.27-.22.48-.67.64-.34.11-.5.32-.5.64v3.68c.12-.16.26-.32.4-.48.55-.71.88-1.07.99-1.07.3,0,.77.35,1.42,1.04.62.71.93,1.15.93,1.3,0,.26-.14.39-.43.39h-3.31v2.4c1.24.57,2.13,1.07,2.67,1.52.64.53.96,1.01.96,1.44,0,.53-.15.98-.45,1.33-.28.39-.63.59-1.04.59-.25,0-.47-.07-.67-.21-.16-.14-.35-.63-.56-1.47-.16-.55-.46-1.15-.91-1.79v8.77c0,1.51.03,3.01.11,4.48,0,.32-.44.55-1.3.69-.37.05-.65.08-.83.08-.48,0-.72-.26-.72-.77.07-1.64.11-3.13.11-4.48v-6.48c-.68,1.35-1.3,2.38-1.87,3.09-.66.98-1.4,1.83-2.21,2.56l-.4-.24c2.03-3.98,3.42-7.82,4.19-11.52h-.16c-1.55,0-2.64.04-3.28.11l-.45-1.06ZM347.61,128.02c.23,0,.76.27,1.57.8.94.66,1.41,1.1,1.41,1.33,0,.27-.18.53-.54.8-.28.23-.42.5-.42.8v4.37c0,.85.03,2.02.1,3.51,0,.36-.47.61-1.41.77-.43.05-.74.08-.93.08-.48,0-.72-.28-.72-.85v-.21h-3.25c.09,1,.32,2.01.69,3.04.41,1.1.84,2.01,1.28,2.72.36-.41.69-.88,1.01-1.41.62-.91,1.14-1.89,1.55-2.96.87.55,1.68,1.07,2.42,1.55.73.52,1.09.9,1.09,1.15,0,.27-.15.4-.45.4l-1.49-.19c-.89.67-2.12,1.37-3.68,2.08.64.8,1.33,1.49,2.05,2.05,1.08.75,2.35,1.35,3.79,1.81l-.21.56c-.83.18-1.42.64-1.76,1.39-.25.64-.45.96-.59.96-.32,0-.86-.3-1.6-.91-.78-.71-1.6-1.67-2.45-2.88-.64-1.01-1.15-2.18-1.52-3.49-.41-1.39-.68-3.34-.82-5.87h-2.05v8.8c1.16-.13,2.26-.28,3.31-.46l.11.32c-1.99,1.49-4.11,2.58-6.34,3.25-.25.04-.37.13-.37.27-.02.09-.05.21-.08.37-.04.25-.12.37-.24.37-.35,0-.79-.64-1.3-1.92-.14-.36-.38-.93-.72-1.73.92-.05,1.82-.12,2.69-.19v-14.74c0-2.29-.11-4.02-.34-5.19,1.01.21,2.17.6,3.46,1.17h4.88c.39-.48.77-.9,1.15-1.25.27-.32.52-.48.75-.48ZM340.68,130.46v3.67h6v-3.67h-6ZM340.68,134.85v3.87h6v-3.87h-6Z"/>
          <path class="cls-7" d="M355.1,131.15c.85.12,2.09.18,3.71.18h1.07c-.02-1.35-.08-2.55-.19-3.6.8.07,1.85.21,3.15.43,1.01.16,1.52.34,1.52.53,0,.28-.29.53-.88.75-.39.14-.59.39-.59.72v1.17h6.93c-.02-1.35-.09-2.55-.21-3.6.82.07,1.87.21,3.15.43,1.03.16,1.54.34,1.54.53,0,.28-.3.53-.9.75-.39.14-.59.39-.59.72v1.17h.32c.07-.04.36-.4.88-1.09.64-.83,1.02-1.25,1.15-1.25.34,0,.88.4,1.63,1.2.75.8,1.12,1.29,1.12,1.47,0,.3-.17.45-.51.45h-4.59v8.4h.83c.07-.04.38-.42.93-1.15.69-.87,1.1-1.3,1.2-1.3.37,0,.95.42,1.73,1.25.78.84,1.17,1.34,1.17,1.52,0,.3-.19.45-.56.45h-7.81c1.25.91,2.53,1.61,3.87,2.11,1.62.55,3.23.95,4.83,1.2l-.11.51c-.71.25-1.21.76-1.49,1.52-.19.55-.41.83-.64.83-.29,0-.96-.3-2.03-.91-1.1-.58-2.14-1.36-3.12-2.32-.98-.94-1.79-1.92-2.43-2.93h-5.04c-1.1,1.46-2.09,2.55-2.96,3.28-.91.75-1.95,1.41-3.12,1.97-1.19.57-2.51,1.06-3.95,1.47l-.19-.45c1.37-.69,2.64-1.58,3.81-2.67,1.14-1.03,2.09-2.23,2.85-3.6h-2.85c-1.55,0-2.65.04-3.31.11l-.43-1.06c.87.13,2.12.19,3.73.19h2.13v-8.4h-1.07c-1.55,0-2.65.03-3.31.1l-.4-1.06ZM360.33,146.26c.85.14,2.1.21,3.73.21h.85v-1.17c0-.76-.08-1.55-.24-2.34,1.19.11,2.34.27,3.44.48.69.02,1.04.18,1.04.48,0,.14-.2.32-.59.53-.46.21-.69.46-.69.75v1.28h.67c.05-.03.32-.36.8-.99.62-.75.99-1.12,1.09-1.12.34,0,.85.37,1.55,1.1.69.73,1.04,1.18,1.04,1.36,0,.27-.15.4-.45.4h-4.69v3.52h4.37c.09-.04.42-.43,1.01-1.2.71-.89,1.12-1.33,1.23-1.33.39,0,.99.43,1.79,1.28.82.85,1.23,1.38,1.23,1.57,0,.3-.19.45-.56.45h-18.43c-1.57,0-2.68.04-3.33.11l-.4-1.06c.85.12,2.1.19,3.73.19h6.4v-3.52h-.85c-1.56,0-2.67.03-3.31.11l-.43-1.07ZM362.9,134.23h6.94v-2.13h-6.94v2.13ZM362.9,137.19h6.94v-2.25h-6.94v2.25ZM362.9,140.5h6.94v-2.54h-6.94v2.54Z"/>
          <path class="cls-7" d="M393.16,131.14c-.84.41-1.99.84-3.47,1.31-.05.28-.11.55-.19.8.93.14,1.67.28,2.24.43.66.21,1.14.44,1.44.69.28.18.43.37.43.59,0,.5-.19.93-.56,1.28-.3.44-.69.66-1.17.66-.18,0-.53-.39-1.07-1.17-.44-.62-1.01-1.17-1.68-1.63-.39.68-.94,1.27-1.65,1.79-.57.46-1.39.86-2.45,1.2v.32h16.89c.34-.23.62-.41.85-.53.34-.27.59-.4.77-.4.23,0,.78.38,1.65,1.15.8.64,1.2,1.11,1.2,1.41,0,.21-.21.35-.64.4-.48,0-.76.04-.83.11-.84.37-1.82.73-2.96,1.07.11.14.16.26.16.35,0,.18-.15.36-.46.53-.28.16-.45.33-.51.51v2.88c0,.3-.42.53-1.28.69-.37.05-.65.08-.82.08-.5,0-.74-.22-.74-.67v-.4h-2.8c-.89.95-1.76,1.76-2.61,2.46h6.77c.35-.48.65-.86.88-1.15.23-.32.48-.48.75-.48.32,0,.88.3,1.68.91.93.62,1.39,1.07,1.39,1.33,0,.21-.16.42-.48.61-.34.18-.53.37-.59.56v2.98c0,.36-.47.62-1.42.8-.41.05-.72.08-.93.08-.48,0-.72-.26-.72-.77v-.61h-13.32v.5c0,.36-.46.62-1.39.77-.39.07-.67.11-.85.11-.59,0-.88-.29-.88-.88.07-.5.1-1.06.1-1.68v-2.03c0-.66-.03-1.44-.1-2.35,1.17.28,2.34.71,3.51,1.28h4.11c.3-.71.61-1.53.93-2.46h-3.41v.4c0,.32-.42.55-1.25.69-.36.05-.61.08-.77.08-.59,0-.88-.26-.88-.77.07-.48.11-1,.11-1.57v-1.84c0-.58-.04-1.29-.11-2.13.96.27,1.95.62,2.96,1.07h8.78c.32-.44.6-.83.83-1.15.21-.28.45-.43.69-.43.28,0,.8.26,1.55.8.14.11.27.2.37.27.41-.62.76-1.23,1.04-1.84h-17.24c-.03.52-.08.9-.13,1.15-.16.68-.43,1.15-.8,1.41-.21.16-.45.24-.69.24-.6,0-1.11-.19-1.52-.56-.35-.29-.53-.7-.53-1.25,0-.21.29-.48.85-.8.61-.28,1.08-.62,1.41-1.02.34-.35.62-.89.85-1.6l.61.08v.59c.41-.34.76-.69,1.04-1.07.43-.48.76-1.12.99-1.92.19-.71.3-1.54.32-2.48,0-1.24-.04-2.28-.11-3.12.76.09,1.52.21,2.27.37,1.07.21,1.6.41,1.6.61s-.18.37-.53.53c-.36.18-.53.36-.53.53-.05.61-.12,1.14-.19,1.6.16-.16.3-.3.43-.43.68-.66,1.23-1.37,1.65-2.14.68.39,1.3.78,1.87,1.15.55.37.83.67.83.88,0,.19-.12.29-.35.29l-1.17-.08ZM385.91,129.41l.56.14c0,1.46-.07,2.46-.21,3.01-.14.6-.38,1.02-.72,1.25-.21.13-.44.19-.69.19-.55,0-1.01-.16-1.39-.48-.36-.28-.53-.68-.53-1.2,0-.19.27-.42.83-.67.59-.27,1.04-.55,1.36-.86.34-.32.6-.78.8-1.39ZM386.9,150.55h13.32v-2.77h-13.32v2.77ZM388.92,143.8h9.4v-2.54h-9.4v2.54ZM396.25,129.54l.56.11c0,1.44-.07,2.42-.21,2.93-.16.59-.43.99-.8,1.22-.21.13-.45.19-.72.19-.55,0-1.01-.16-1.38-.48-.36-.28-.53-.68-.53-1.2,0-.18.28-.4.85-.67.6-.23,1.07-.5,1.41-.8.34-.3.61-.74.82-1.3ZM404.26,131.54c-.96.29-2.29.57-4,.85-.07.21-.15.42-.24.62.78.12,1.44.26,1.97.4.75.21,1.29.45,1.63.72.3.19.45.4.45.61,0,.48-.17.88-.51,1.2-.3.43-.67.64-1.09.64-.21,0-.64-.41-1.28-1.23-.45-.53-.98-1.01-1.6-1.44v.03c-.41.73-1.08,1.37-2,1.92-.76.46-1.85.87-3.25,1.23l-.21-.4c.76-.41,1.43-.87,2-1.39.52-.46.92-1.07,1.23-1.81.25-.68.38-1.46.4-2.34,0-1.3-.03-2.38-.1-3.23.82.11,1.62.25,2.4.43,1.12.21,1.68.42,1.68.64s-.18.41-.53.59c-.36.16-.54.33-.54.51-.07.55-.14,1.04-.21,1.47.23-.18.46-.36.69-.56.75-.59,1.36-1.22,1.84-1.89.75.48,1.44.91,2.08,1.3.62.43.94.74.94.93,0,.21-.15.32-.45.32l-1.28-.11Z"/>
          <path class="cls-7" d="M408.63,140.21c.75.2,1.56.29,2.45.29.34-.27.63-.53.88-.8.37-.37.66-.56.85-.56.26,0,.74.3,1.41.91.76.64,1.15,1.05,1.15,1.23,0,.23-.19.45-.56.66-.34.31-.5.57-.5.8v4.69c.8.96,1.82,1.52,3.07,1.68,1.4.18,4.13.27,8.18.27,2.44,0,5.15-.19,8.14-.56l.11.56c-.67.14-1.24.78-1.68,1.92-.07.48-.22.72-.45.72h-6.93c-1.56,0-3.57-.1-6.03-.29-2.4-.48-4.13-1.59-5.17-3.33-.07,0-.14.08-.21.24-.59,1.02-1.3,1.98-2.13,2.88,0,.71-.13,1.07-.4,1.07-.16,0-.35-.2-.56-.61-.46-.89-.96-1.97-1.49-3.25,1.23-.2,2.16-.37,2.8-.51v-6.93c-1.1,0-1.93.06-2.48.19l-.43-1.25ZM409.29,133.68c1.87.38,3.18.77,3.92,1.18.66.41.99.87.99,1.39s-.22.99-.67,1.47c-.29.3-.68.45-1.17.45-.43,0-.8-.35-1.12-1.07-.39-1.01-1.12-2-2.19-2.96l.24-.45ZM410.36,128.9c1.79.32,3.05.67,3.76,1.07.62.36.93.77.93,1.25,0,.52-.22,1-.67,1.44-.28.34-.68.51-1.18.51-.39,0-.74-.35-1.04-1.04-.38-.96-1.06-1.9-2.05-2.83l.24-.4ZM418.23,128.9c.87.23,1.7.47,2.48.72.78.23,1.17.48,1.17.75s-.22.44-.67.51c-.45.05-.69.14-.74.27-.29.71-.59,1.35-.91,1.92h3.25v-2.48c0-.73-.07-1.47-.21-2.24,1.17.13,2.3.28,3.36.48.67.02,1.01.18,1.01.48,0,.13-.2.28-.59.48-.46.19-.7.42-.7.69v2.59h1.09s.29-.29.83-.88c.73-.84,1.2-1.25,1.41-1.25.19,0,.81.46,1.84,1.39.61.55.91.9.91,1.06,0,.26-.17.39-.51.39h-5.58v4.21h2.46c.07-.03.37-.39.9-1.07.64-.78,1.02-1.18,1.15-1.18.32,0,.84.38,1.55,1.15.73.77,1.09,1.23,1.09,1.39,0,.3-.17.46-.51.46h-12.7c-1.56,0-2.67.03-3.31.11l-.45-1.07c.87.14,2.12.21,3.76.21h3.17v-4.21h-3.73c-.12.21-.24.38-.35.51-.64.86-1.48,1.73-2.51,2.61l-.35-.32c.64-1.3,1.14-2.48,1.49-3.54.34-1.17.62-2.55.86-4.13ZM417.61,139.9c1.23.32,2.47.78,3.74,1.39h5.33c.39-.48.77-.9,1.15-1.25.27-.32.52-.48.77-.48.23,0,.77.26,1.6.77.98.68,1.47,1.13,1.47,1.36,0,.25-.18.5-.54.75-.28.21-.43.47-.43.77v1.04c0,.85.04,1.99.13,3.41,0,.36-.46.61-1.38.77-.39.05-.68.08-.86.08-.5,0-.75-.28-.75-.85v-.51h-7.15v.64c0,.34-.44.59-1.31.75-.37.05-.65.08-.83.08-.57,0-.85-.28-.85-.83.05-.94.08-1.87.08-2.8v-1.25c0-1.33-.06-2.61-.19-3.84ZM420.7,146.38h7.17v-4.38h-7.17v4.38Z"/>
        </g>
      </g>
    </g>
  </g>
  <g>
    <text class="cls-3" transform="translate(121.69 48.89)"><tspan class="cls-20" x="0" y="0" xml:space="preserve"> 2026/9/23</tspan><tspan class="cls-17" x="285.74" y="0">（三</tspan><tspan class="cls-18" x="360.94" y="0">）</tspan></text>
    <text class="cls-4" transform="translate(500.23 49.73)"><tspan x="0" y="0">14:00-16:30</tspan><tspan class="cls-8" x="138.5" y="0"> </tspan><tspan class="cls-6" x="132.27" y="0">（</tspan><tspan x="157.26" y="0">13:30開放報</tspan><tspan class="cls-19" x="299.78" y="0">到</tspan><tspan class="cls-8" x="324.77" y="0">）</tspan></text>
  </g>
  <text class="cls-12" transform="translate(.48 105.41)"><tspan x="0" y="0">冠德民權大樓15樓論壇</tspan><tspan class="cls-21" x="338.02" y="0">室</tspan><tspan class="cls-15" x="355.94" y="0">（</tspan><tspan x="388.17" y="0">臺北市松山區民權東路三段169號15</tspan><tspan class="cls-16" x="915.59" y="0">樓</tspan><tspan class="cls-13" x="947.82" y="0">）</tspan></text>
</svg>